<svg xmlns="http://www.w3.org/2000/svg" xmlns:xlink="http://www.w3.org/1999/xlink" width="500" zoomAndPan="magnify" viewBox="0 0 375 374.999991" height="500" preserveAspectRatio="xMidYMid meet" version="1.0"><defs><clipPath id="b9c806dc14"><path d="M 56 37.5 L 307.488281 37.5 L 307.488281 320.25 L 56 320.25 Z M 56 37.5 " clip-rule="nonzero"/></clipPath></defs><g clip-path="url(#b9c806dc14)"><path fill="#9ebc9f" d="M 299.691406 185.261719 C 304.882812 180.082031 307.742188 173.167969 307.742188 165.792969 C 307.742188 158.417969 304.882812 151.5 299.695312 146.308594 C 289.847656 136.464844 274.316406 135.652344 263.523438 143.878906 C 258.761719 140.242188 252.953125 138.273438 246.824219 138.273438 C 243.226562 138.273438 239.742188 138.957031 236.511719 140.253906 C 231.679688 137.917969 226.507812 136.304688 221.203125 135.476562 C 236.78125 126.332031 247.261719 109.410156 247.261719 90.082031 C 247.261719 61.085938 223.667969 37.5 194.664062 37.5 C 165.671875 37.5 142.085938 61.085938 142.085938 90.082031 C 142.085938 109.402344 152.558594 126.320312 168.121094 135.464844 C 141.964844 139.523438 121.878906 162.191406 121.878906 189.46875 L 121.878906 219.992188 L 96.878906 235.199219 L 94.664062 231.722656 C 94.101562 230.84375 93.214844 230.226562 92.199219 230 C 91.179688 229.773438 90.113281 229.964844 89.238281 230.523438 L 57.941406 250.492188 C 56.113281 251.660156 55.578125 254.085938 56.742188 255.917969 L 96.597656 318.410156 C 97.347656 319.585938 98.617188 320.226562 99.914062 320.226562 C 100.636719 320.226562 101.367188 320.027344 102.023438 319.609375 L 133.332031 299.644531 C 134.210938 299.082031 134.832031 298.195312 135.054688 297.179688 C 135.28125 296.160156 135.09375 295.09375 134.53125 294.214844 L 129.871094 286.90625 L 141.8125 279.644531 L 192.441406 296.386719 C 195.855469 297.515625 199.265625 298.078125 202.621094 298.078125 C 208.472656 298.078125 214.164062 296.371094 219.441406 292.988281 L 279.4375 254.535156 C 287.691406 249.242188 290.109375 238.210938 284.820312 229.933594 C 280.96875 223.9375 274.089844 221.027344 267.453125 221.914062 L 267.453125 217.519531 Z M 260.742188 151.867188 C 262.277344 153.402344 264.761719 153.402344 266.296875 151.871094 C 273.980469 144.199219 286.46875 144.199219 294.136719 151.867188 C 297.839844 155.574219 299.882812 160.519531 299.882812 165.789062 C 299.882812 171.0625 297.839844 176.003906 294.136719 179.703125 L 263.519531 210.332031 L 232.90625 179.703125 C 225.238281 172.035156 225.238281 159.546875 232.90625 151.867188 C 236.605469 148.167969 241.546875 146.132812 246.824219 146.132812 C 252.101562 146.132812 257.046875 148.167969 260.742188 151.867188 Z M 149.945312 90.082031 C 149.945312 65.421875 170.003906 45.359375 194.664062 45.359375 C 219.332031 45.359375 239.402344 65.421875 239.402344 90.082031 C 239.402344 114.75 219.332031 134.816406 194.664062 134.816406 C 170.003906 134.816406 149.945312 114.75 149.945312 90.082031 Z M 176.527344 142.675781 L 212.800781 142.675781 C 218.101562 142.675781 223.375 143.59375 228.355469 145.355469 C 228.011719 145.664062 227.675781 145.980469 227.347656 146.308594 C 227.347656 146.3125 227.347656 146.3125 227.347656 146.3125 C 216.617188 157.058594 216.617188 174.53125 227.347656 185.261719 L 259.589844 217.519531 L 259.589844 224.96875 L 223.804688 247.910156 C 222.082031 242.675781 217.972656 238.402344 212.476562 236.582031 L 148.886719 215.550781 C 142.375 213.394531 135.851562 213.507812 129.738281 215.820312 L 129.738281 189.46875 C 129.738281 163.667969 150.726562 142.675781 176.527344 142.675781 Z M 101.109375 310.871094 L 65.480469 255.003906 L 90.148438 239.265625 L 121.015625 287.644531 C 121.023438 287.65625 121.027344 287.667969 121.035156 287.679688 C 121.054688 287.710938 121.074219 287.734375 121.089844 287.765625 L 125.792969 295.128906 Z M 278.203125 234.171875 C 281.15625 238.796875 279.804688 244.960938 275.195312 247.917969 L 215.199219 286.371094 C 208.960938 290.371094 201.945312 291.253906 194.910156 288.921875 L 142.554688 271.613281 C 141.460938 271.253906 140.261719 271.390625 139.277344 271.988281 L 125.640625 280.28125 L 101.109375 241.828125 L 128.730469 225.023438 C 134.277344 221.636719 140.230469 220.960938 146.417969 223.011719 L 210.007812 244.042969 C 214.15625 245.414062 216.957031 249.476562 216.820312 253.8125 C 216.789062 253.957031 216.757812 254.105469 216.742188 254.257812 C 216.359375 257.539062 214.546875 260.585938 212.007812 262.203125 C 209.65625 263.703125 206.882812 263.941406 203.773438 262.910156 L 174.800781 253.335938 C 172.742188 252.652344 170.519531 253.769531 169.839844 255.832031 C 169.15625 257.890625 170.273438 260.117188 172.335938 260.796875 L 201.304688 270.375 C 203.34375 271.050781 205.382812 271.382812 207.367188 271.382812 C 210.542969 271.382812 213.574219 270.523438 216.234375 268.828125 C 220.292969 266.242188 223.203125 261.890625 224.25 256.960938 L 264.464844 231.179688 C 269.078125 228.222656 275.246094 229.566406 278.203125 234.171875 Z M 247.386719 174.367188 C 247.386719 172.199219 249.148438 170.4375 251.316406 170.4375 L 259.589844 170.4375 L 259.589844 162.148438 C 259.589844 159.980469 261.351562 158.222656 263.519531 158.222656 C 265.691406 158.222656 267.449219 159.980469 267.449219 162.148438 L 267.449219 170.4375 L 275.738281 170.4375 C 277.910156 170.4375 279.667969 172.199219 279.667969 174.367188 C 279.667969 176.539062 277.910156 178.296875 275.738281 178.296875 L 267.449219 178.296875 L 267.449219 186.570312 C 267.449219 188.742188 265.691406 190.5 263.519531 190.5 C 261.351562 190.5 259.589844 188.742188 259.589844 186.570312 L 259.589844 178.296875 L 251.316406 178.296875 C 249.148438 178.296875 247.386719 176.539062 247.386719 174.367188 Z M 247.386719 174.367188 " fill-opacity="1" fill-rule="nonzero"/></g></svg>