<svg xmlns="http://www.w3.org/2000/svg" xmlns:xlink="http://www.w3.org/1999/xlink" width="500" zoomAndPan="magnify" viewBox="0 0 375 374.999991" height="500" preserveAspectRatio="xMidYMid meet" version="1.0"><defs><clipPath id="9d87759e37"><path d="M 27.554688 45 L 347 45 L 347 320 L 27.554688 320 Z M 27.554688 45 " clip-rule="nonzero"/></clipPath></defs><g clip-path="url(#9d87759e37)"><path fill="#9ebc9f" d="M 346.207031 168.46875 C 343.28125 164.136719 334.308594 159.515625 323.449219 159.488281 C 323.410156 159.488281 323.375 159.488281 323.339844 159.488281 C 313.945312 159.488281 305.214844 163.019531 297.949219 169.585938 L 297.949219 122.976562 C 297.949219 109.636719 287.101562 98.789062 273.761719 98.789062 L 268.679688 98.789062 L 268.679688 83.203125 L 274.015625 83.203125 C 278.757812 83.203125 282.613281 79.34375 282.613281 74.605469 L 282.613281 54.34375 C 282.613281 49.601562 278.757812 45.746094 274.015625 45.746094 L 209.738281 45.746094 C 205 45.746094 201.140625 49.601562 201.140625 54.34375 L 201.140625 74.605469 C 201.140625 79.34375 205 83.203125 209.738281 83.203125 L 213.671875 83.203125 L 213.671875 98.789062 L 209.988281 98.789062 C 196.652344 98.789062 185.804688 109.636719 185.804688 122.976562 L 185.804688 180.65625 C 182.007812 179.699219 178.011719 178.664062 174.152344 177.667969 C 158.289062 173.558594 143.300781 169.675781 137.484375 169.417969 C 121.253906 168.71875 105.578125 180.050781 97.433594 186.984375 C 92.503906 191.488281 87.476562 196.226562 83.046875 200.402344 C 79.289062 203.945312 75.6875 207.339844 73.15625 209.621094 L 67.824219 203.804688 C 66.21875 202.054688 63.5 201.941406 61.757812 203.535156 L 28.949219 233.53125 C 28.105469 234.296875 27.609375 235.375 27.558594 236.515625 C 27.507812 237.652344 27.914062 238.765625 28.679688 239.609375 L 100.894531 318.382812 C 101.742188 319.304688 102.898438 319.773438 104.0625 319.773438 C 105.101562 319.773438 106.132812 319.40625 106.960938 318.652344 L 139.777344 288.652344 C 140.621094 287.886719 141.121094 286.808594 141.171875 285.667969 C 141.21875 284.53125 140.816406 283.417969 140.046875 282.574219 L 133.75 275.703125 C 136.792969 272.632812 141.613281 268.777344 145.816406 268.925781 C 147.714844 269.011719 153.613281 270.554688 159.851562 272.183594 C 175.300781 276.222656 198.117188 282.1875 216.859375 282.1875 C 224.589844 282.1875 231.632812 281.167969 237.171875 278.59375 C 255.445312 270.085938 338.222656 189.953125 346.511719 172.746094 C 347.179688 171.363281 347.0625 169.738281 346.207031 168.46875 Z M 209.738281 54.34375 L 274.015625 54.34375 L 274.019531 74.605469 L 209.742188 74.605469 L 209.742188 54.34375 Z M 222.269531 83.199219 L 260.082031 83.199219 L 260.082031 98.78125 L 222.269531 98.78125 Z M 194.402344 122.972656 C 194.402344 114.371094 201.394531 107.382812 209.992188 107.382812 L 273.761719 107.382812 C 282.359375 107.382812 289.355469 114.378906 289.355469 122.972656 L 289.355469 178.339844 L 289.496094 178.339844 L 257.488281 196.859375 C 253.738281 190.679688 247.09375 186.410156 239.347656 186.058594 L 203.203125 184.433594 C 201.753906 184.367188 198.503906 183.703125 194.398438 182.746094 L 194.398438 122.972656 Z M 104.332031 309.410156 L 37.929688 236.972656 L 64.394531 212.777344 L 130.800781 285.214844 Z M 233.542969 270.792969 C 217.363281 278.332031 181.363281 268.917969 162.019531 263.867188 C 153.472656 261.628906 148.878906 260.457031 146.199219 260.339844 C 138.601562 259.957031 131.824219 265.359375 127.902344 269.324219 L 78.976562 215.953125 C 81.339844 213.816406 84.589844 210.769531 88.949219 206.652344 C 93.351562 202.503906 98.34375 197.796875 103.128906 193.421875 C 110.195312 187.40625 123.953125 177.382812 137.101562 177.996094 C 142.023438 178.214844 157.953125 182.34375 172 185.980469 C 188.460938 190.242188 198.746094 192.84375 202.824219 193.027344 L 238.96875 194.652344 C 246.5625 195 252.460938 201.457031 252.121094 209.050781 C 251.777344 216.648438 245.214844 222.535156 237.726562 222.207031 L 177.492188 219.492188 L 177.105469 228.078125 L 237.339844 230.792969 C 237.679688 230.808594 238.019531 230.820312 238.359375 230.820312 C 250.242188 230.820312 260.167969 221.425781 260.710938 209.4375 C 260.777344 207.949219 260.679688 206.492188 260.46875 205.074219 L 296.070312 184.472656 C 296.621094 184.148438 297.101562 183.710938 297.460938 183.179688 C 305.984375 170.714844 316.226562 168.085938 323.339844 168.085938 C 323.367188 168.085938 323.394531 168.085938 323.425781 168.085938 C 329.644531 168.105469 334.585938 170.070312 337.191406 171.703125 C 323.535156 192.214844 249.65625 263.292969 233.542969 270.792969 Z M 237.582031 153.429688 L 223.207031 153.429688 L 223.207031 144.835938 L 237.582031 144.835938 L 237.582031 130.460938 L 246.179688 130.460938 L 246.179688 144.835938 L 260.550781 144.835938 L 260.550781 153.433594 L 246.179688 153.433594 L 246.179688 167.804688 L 237.582031 167.804688 Z M 237.582031 153.429688 " fill-opacity="1" fill-rule="nonzero"/></g></svg>