<svg xmlns="http://www.w3.org/2000/svg" xmlns:xlink="http://www.w3.org/1999/xlink" width="500" zoomAndPan="magnify" viewBox="0 0 375 374.999991" height="500" preserveAspectRatio="xMidYMid meet" version="1.0"><defs><clipPath id="fc42d21321"><path d="M 170 65.875 L 295 65.875 L 295 190 L 170 190 Z M 170 65.875 " clip-rule="nonzero"/></clipPath><clipPath id="2511c3a8b3"><path d="M 31.722656 194 L 343 194 L 343 317.125 L 31.722656 317.125 Z M 31.722656 194 " clip-rule="nonzero"/></clipPath></defs><g clip-path="url(#fc42d21321)"><path fill="#9ebc9f" d="M 232.507812 189.414062 C 266.5625 189.414062 294.269531 161.710938 294.269531 127.65625 C 294.269531 93.601562 266.5625 65.894531 232.507812 65.894531 C 198.453125 65.894531 170.75 93.601562 170.75 127.65625 C 170.75 161.710938 198.453125 189.414062 232.507812 189.414062 Z M 181.019531 127.65625 C 181.019531 99.261719 204.117188 76.164062 232.507812 76.164062 C 260.902344 76.164062 284 99.261719 284 127.65625 C 284 156.046875 260.902344 179.144531 232.507812 179.144531 C 204.117188 179.144531 181.019531 156.046875 181.019531 127.65625 Z M 181.019531 127.65625 " fill-opacity="1" fill-rule="nonzero"/></g><path fill="#9ebc9f" d="M 217.425781 155.941406 C 220.089844 158.542969 223.644531 160.378906 227.550781 161.1875 L 227.511719 166.640625 C 227.492188 169.398438 229.714844 171.65625 232.472656 171.675781 L 232.507812 171.675781 C 235.242188 171.675781 237.484375 169.449219 237.503906 166.714844 L 237.546875 161.167969 C 241.4375 160.347656 244.976562 158.507812 247.628906 155.902344 C 250.710938 152.882812 252.40625 149.011719 252.40625 145.003906 L 252.40625 142.800781 C 252.40625 137.476562 249.410156 132.441406 244.386719 129.332031 L 226.574219 118.304688 C 224.484375 117.007812 223.289062 115.199219 223.289062 113.332031 L 223.289062 109.882812 C 223.289062 108.203125 224.214844 106.589844 225.902344 105.339844 C 227.742188 103.976562 230.210938 103.222656 232.851562 103.222656 C 235.492188 103.222656 237.957031 103.972656 239.796875 105.339844 C 241.484375 106.589844 242.414062 108.203125 242.414062 109.882812 L 242.414062 113.773438 C 242.414062 116.527344 244.65625 118.769531 247.410156 118.769531 C 250.164062 118.769531 252.40625 116.527344 252.40625 113.773438 L 252.40625 109.882812 C 252.40625 102.273438 246.367188 95.691406 237.847656 93.785156 L 237.847656 88.628906 C 237.847656 85.875 235.605469 83.632812 232.851562 83.632812 C 230.097656 83.632812 227.855469 85.875 227.855469 88.628906 L 227.855469 93.785156 C 219.335938 95.691406 213.292969 102.273438 213.292969 109.882812 L 213.292969 113.332031 C 213.292969 118.65625 216.292969 123.691406 221.3125 126.800781 L 239.128906 137.828125 C 241.214844 139.121094 242.414062 140.933594 242.414062 142.796875 L 242.414062 145.003906 C 242.414062 146.683594 241.484375 148.296875 239.796875 149.546875 C 237.960938 150.910156 235.492188 151.664062 232.851562 151.664062 L 232.171875 151.664062 C 229.53125 151.664062 227.0625 150.914062 225.222656 149.546875 C 223.535156 148.296875 222.609375 146.683594 222.609375 145.003906 L 222.609375 142.859375 C 222.609375 140.105469 220.367188 137.863281 217.609375 137.863281 C 214.855469 137.863281 212.613281 140.105469 212.613281 142.859375 L 212.613281 145.003906 C 212.613281 149.027344 214.320312 152.910156 217.425781 155.941406 Z M 217.425781 155.941406 " fill-opacity="1" fill-rule="nonzero"/><g clip-path="url(#2511c3a8b3)"><path fill="#9ebc9f" d="M 336.6875 204.253906 C 329.722656 196.515625 318.597656 195.742188 310.773438 202.445312 L 264.902344 239.550781 C 264.921875 239.09375 264.925781 238.640625 264.921875 238.183594 C 264.738281 227.121094 256.050781 218.117188 245.550781 218.117188 L 194.617188 218.117188 C 191.683594 218.117188 188.914062 216.421875 187.210938 213.582031 C 186.839844 212.96875 186.335938 212.460938 185.773438 212.019531 C 164.917969 195.566406 136.894531 193.410156 112.898438 204.078125 L 104.027344 208.019531 L 86.207031 208.019531 L 86.207031 199.882812 C 86.207031 196.964844 83.839844 194.597656 80.921875 194.597656 L 37.011719 194.597656 C 34.09375 194.597656 31.726562 196.964844 31.726562 199.882812 L 31.726562 297.675781 C 31.726562 300.59375 34.09375 302.964844 37.011719 302.964844 L 80.921875 302.964844 C 83.839844 302.964844 86.207031 300.59375 86.207031 297.675781 L 86.207031 289.285156 L 104.332031 289.285156 L 167.042969 309.195312 C 181.265625 314.457031 193.1875 317.085938 205.109375 317.085938 C 214.667969 317.085938 224.226562 315.394531 234.964844 312.015625 C 235.953125 311.707031 236.953125 311.378906 237.960938 311.042969 C 240.136719 310.207031 242.25 309.210938 244.285156 308.074219 C 245.960938 307.136719 247.550781 306.046875 249.042969 304.832031 L 336.667969 233.34375 C 336.957031 233.105469 337.222656 232.839844 337.453125 232.550781 C 343.972656 224.402344 343.632812 211.972656 336.6875 204.253906 Z M 75.632812 292.390625 L 42.300781 292.390625 L 42.300781 205.171875 L 75.632812 205.171875 Z M 329.5 225.542969 L 247.773438 292.222656 C 240.636719 298.046875 232.269531 302.179688 223.296875 304.277344 C 205.53125 308.433594 190.882812 306.753906 170.597656 299.238281 C 170.519531 299.210938 170.441406 299.183594 170.359375 299.15625 L 106.75 278.960938 C 106.230469 278.796875 105.691406 278.710938 105.148438 278.710938 L 86.207031 278.710938 L 86.207031 218.59375 L 105.152344 218.59375 C 105.890625 218.59375 106.621094 218.441406 107.296875 218.140625 L 117.195312 213.742188 C 137.410156 204.753906 160.359375 207.109375 178.773438 220.019531 C 182.464844 225.472656 188.308594 228.695312 194.617188 228.695312 L 245.550781 228.695312 C 250.3125 228.695312 254.257812 233.03125 254.347656 238.359375 C 254.394531 241.300781 253.332031 244.097656 251.433594 246.027344 C 250.5 246.976562 249.410156 247.664062 248.246094 248.050781 C 246.742188 248.292969 245.214844 248.417969 243.671875 248.417969 L 187.015625 248.417969 C 184.109375 248.417969 181.6875 250.730469 181.648438 253.636719 C 181.609375 256.585938 183.992188 258.992188 186.9375 258.992188 L 246.003906 258.992188 C 247.59375 258.992188 249.15625 258.777344 250.664062 258.367188 C 257.257812 257.179688 263.480469 254.300781 268.953125 249.875 L 317.484375 210.617188 C 317.53125 210.582031 317.574219 210.542969 317.617188 210.507812 C 321.03125 207.554688 325.746094 207.902344 328.828125 211.328125 C 332.238281 215.117188 332.5 221.386719 329.5 225.542969 Z M 329.5 225.542969 " fill-opacity="1" fill-rule="nonzero"/></g></svg>